<svg xmlns="http://www.w3.org/2000/svg" enable-background="new 0 0 24 24" viewBox="0 0 24 24"
    id="disconnect">
    <g id="_icons">
        <path
            d="M14.25 17.0801c.2593 0 .519-.1006.7148-.3008.3862-.3945.3794-1.0273-.0156-1.4141-.6631-.6494-1.4834-1.0527-2.3716-1.167-.5513-.0645-1.0493.3164-1.1191.8652-.0703.5479.3164 1.0488.8643 1.1191.4531.0576.8779.2695 1.228.6123C13.7451 16.9854 13.9976 17.0801 14.25 17.0801zM16.4902 14.8398c.2529 0 .5059-.0957.7007-.2861.394-.3877.3999-1.0205.0127-1.415-.6328-.6436-1.3789-1.1602-2.2168-1.5332-.5059-.2236-1.0957.0029-1.3203.5078-.2246.5039.0024 1.0957.5068 1.3203.6079.2705 1.1475.6426 1.6035 1.1074C15.9727 14.7402 16.2314 14.8398 16.4902 14.8398zM18.7402 12.5898c.2559 0 .5122-.0977.7075-.293.3901-.3906.3901-1.0244-.0005-1.4141-.7246-.7246-1.5186-1.3232-2.3594-1.7813-.4863-.2627-1.0928-.085-1.3564.4014-.2642.4854-.0845 1.0918.4004 1.3564.6729.3652 1.3125.8496 1.9014 1.4375C18.2285 12.4922 18.4844 12.5898 18.7402 12.5898zM21.707 8.623c-.7891-.7891-1.6514-1.4658-2.564-2.0117-.4731-.2822-1.0879-.1289-1.3716.3447-.2832.4746-.1289 1.0879.3452 1.3721.771.4609 1.5034 1.0361 2.1763 1.709.1953.1953.4512.293.707.293s.5117-.0977.707-.293C22.0977 9.6465 22.0977 9.0137 21.707 8.623zM2.293 10.0371c.1953.1953.4512.293.707.293s.5117-.0977.707-.293c2.21-2.21 5.1553-3.4268 8.293-3.4268.827 0 1.6365.0928 2.4254.2571l-.8434 1.0544C13.0654 7.8435 12.5396 7.79 12 7.79c-2.8188 0-5.4644 1.0986-7.4492 3.0947-.3896.3916-.3877 1.0244.0039 1.4141.1948.1943.4502.291.7051.291.2568 0 .5137-.0986.709-.2949C7.5757 10.6797 9.7173 9.79 12 9.79c.0284 0 .0557.0041.084.0043l-.9962 1.2454c-1.6307.1957-3.1409.9271-4.2919 2.0999-.3867.3936-.3809 1.0273.0137 1.4141.1943.1904.4473.2861.7002.2861.2588 0 .5181-.0996.7139-.2998.061-.0621.1339-.1083.1976-.1671l-1.9984 2.4981c-.3452.4316-.2754 1.0605.1558 1.4063.1846.1475.4053.2188.6245.2188.293 0 .584-.1279.7813-.375L18.7808 4.625c.3452-.4316.2754-1.0605-.1563-1.4063C18.1943 2.875 17.564 2.9453 17.2192 3.375l-1.419 1.7738C14.5781 4.7981 13.3053 4.6104 12 4.6104c-3.6724 0-7.1196 1.4248-9.707 4.0127C1.9023 9.0137 1.9023 9.6465 2.293 10.0371z" />
        <circle cx="12" cy="18.33" r="1.06" />
    </g>
</svg>
